<?xml version="1.0" encoding="UTF-8" standalone="no"?>
<!DOCTYPE svg PUBLIC "-//W3C//DTD SVG 1.1//EN" "http://www.w3.org/Graphics/SVG/1.1/DTD/svg11.dtd">
<svg version="1.1" xmlns="http://www.w3.org/2000/svg" xmlns:xlink="http://www.w3.org/1999/xlink" preserveAspectRatio="xMidYMid meet" viewBox="59 45.770925765769235 101.2753480252278 101.60870605751403" width="97.28" height="97.61"><defs><path d="M65.94 100.94L152.87 100.94L152.87 134.89L65.94 134.89L65.94 100.94Z" id="a10RQuIWS3"></path><path d="M60 144.38L60 90.8L72.93 90.8L72.79 119.17L144.06 119.52L144.2 90.8L157.28 90.8L157.28 144.38L60 144.38Z" id="d7TsPWOdt"></path><path d="M129.6 55.26L136.4 55.27L136.32 104.55L129.52 104.54L129.6 55.26Z" id="d1sOGmnh6W"></path><path d="M142.45 56.14C142.44 61.3 138.24 65.49 133.08 65.48C127.91 65.47 123.73 61.27 123.74 56.11C123.75 50.95 127.95 46.76 133.11 46.77C138.27 46.78 142.46 50.98 142.45 56.14Z" id="fNG5XLRi3"></path><path d="M105.06 61.6L110.91 58.13L136.05 100.52L130.21 103.99L105.06 61.6Z" id="cyiPtQoXm"></path><path d="M117.36 55.58C120 60.02 118.53 65.76 114.09 68.39C109.65 71.03 103.91 69.56 101.27 65.12C98.64 60.68 100.11 54.94 104.55 52.3C108.99 49.67 114.73 51.14 117.36 55.58Z" id="a3PAuSSsz6"></path><path d="M90.5 80.81L93.85 74.9L136.71 99.23L133.35 105.14L90.5 80.81Z" id="b49fJpO1bW"></path><path d="M86.8 105.15L86.8 98.35L136.08 98.35L136.08 105.15L86.8 105.15Z" id="crtyekAwH"></path><path d="M97.58 70.02C102.07 72.57 103.65 78.28 101.1 82.77C98.55 87.26 92.84 88.84 88.35 86.29C83.86 83.74 82.28 78.03 84.83 73.54C87.38 69.05 93.09 67.47 97.58 70.02Z" id="e6KRvZnsw"></path><path d="M87.23 92.09C92.39 92.09 96.58 96.28 96.58 101.45C96.58 106.61 92.39 110.8 87.23 110.8C82.06 110.8 77.87 106.61 77.87 101.45C77.87 96.28 82.06 92.09 87.23 92.09Z" id="h14KwUAmof"></path></defs><g><g><use xlink:href="#a10RQuIWS3" opacity="1" fill="#4b4848" fill-opacity="1"></use></g><g><use xlink:href="#d7TsPWOdt" opacity="1" fill="#c80000" fill-opacity="1"></use></g><g><use xlink:href="#d1sOGmnh6W" opacity="1" fill="#7a7a7a" fill-opacity="1"></use></g><g><use xlink:href="#fNG5XLRi3" opacity="1" fill="#c80000" fill-opacity="1"></use><g><use xlink:href="#fNG5XLRi3" opacity="1" fill-opacity="0" stroke="#e76e24" stroke-width="0" stroke-opacity="1"></use></g></g><g><use xlink:href="#cyiPtQoXm" opacity="1" fill="#909090" fill-opacity="1"></use></g><g><use xlink:href="#a3PAuSSsz6" opacity="1" fill="#c80000" fill-opacity="1"></use><g><use xlink:href="#a3PAuSSsz6" opacity="1" fill-opacity="0" stroke="#e76e24" stroke-width="0" stroke-opacity="1"></use></g></g><g><use xlink:href="#b49fJpO1bW" opacity="1" fill="#b6b6b6" fill-opacity="1"></use></g><g><use xlink:href="#crtyekAwH" opacity="1" fill="#dedede" fill-opacity="1"></use></g><g><use xlink:href="#e6KRvZnsw" opacity="1" fill="#c80000" fill-opacity="1"></use><g><use xlink:href="#e6KRvZnsw" opacity="1" fill-opacity="0" stroke="#e76e24" stroke-width="0" stroke-opacity="1"></use></g></g><g><use xlink:href="#h14KwUAmof" opacity="1" fill="#c80000" fill-opacity="1"></use><g><use xlink:href="#h14KwUAmof" opacity="1" fill-opacity="0" stroke="#e76e24" stroke-width="0" stroke-opacity="1"></use></g></g></g></svg>